<svg width="16" height="16" fill="none" xmlns="http://www.w3.org/2000/svg"><path fill="#E5E5E5" d="M0 0h16v16H0z"/><g clip-path="url(#a)"><path fill="#FEAFC3" d="M-1080-44H286v3756h-1366z"/><rect opacity=".3" x="-17" y="-8" width="92" height="32" rx="16" fill="#FCFCFC"/><path fill-rule="evenodd" clip-rule="evenodd" d="M9.2.87c0-.36.3-.66.68-.66h3a2.17 2.17 0 0 1 2.16 2.17v10.5a2.17 2.17 0 0 1-2.16 2.16h-3a.67.67 0 0 1 0-1.33h3a.83.83 0 0 0 .83-.84V2.38a.83.83 0 0 0-.84-.83h-3a.67.67 0 0 1-.66-.67ZM5.66 3.4a.67.67 0 0 1 .95 0l3.74 3.75a.66.66 0 0 1 0 .95L6.6 11.85a.67.67 0 1 1-.95-.95l2.62-2.6H.87a.67.67 0 0 1 0-1.34h7.4L5.65 4.35a.67.67 0 0 1 0-.95Z" fill="#2D3440"/></g><defs><clipPath id="a"><path fill="#fff" transform="translate(-1080 -44)" d="M0 0h1366v3909H0z"/></clipPath></defs></svg>